<svg xmlns="http://www.w3.org/2000/svg" width="56.928" height="56.915" viewBox="0 0 56.928 56.915">
  <defs>
    <style>
      .cls-1 {
        fill: #fff;
      }
    </style>
  </defs>
  <path id="Icon_awesome-instagram" data-name="Icon awesome-instagram" class="cls-1" d="M28.465,16.1A14.592,14.592,0,1,0,43.057,30.7,14.569,14.569,0,0,0,28.465,16.1Zm0,24.079A9.487,9.487,0,1,1,37.952,30.7a9.5,9.5,0,0,1-9.487,9.487ZM47.058,15.506a3.4,3.4,0,1,1-3.4-3.4A3.4,3.4,0,0,1,47.058,15.506Zm9.665,3.454c-.216-4.559-1.257-8.6-4.6-11.925S44.759,2.666,40.2,2.438c-4.7-.267-18.783-.267-23.482,0C12.171,2.654,8.132,3.7,4.792,7.022S.423,14.388.195,18.948c-.267,4.7-.267,18.783,0,23.482.216,4.559,1.257,8.6,4.6,11.925s7.366,4.369,11.925,4.6c4.7.267,18.783.267,23.482,0,4.559-.216,8.6-1.257,11.925-4.6s4.369-7.366,4.6-11.925c.267-4.7.267-18.771,0-23.47ZM50.652,47.472a9.6,9.6,0,0,1-5.41,5.41c-3.747,1.486-12.636,1.143-16.777,1.143s-13.043.33-16.777-1.143a9.6,9.6,0,0,1-5.41-5.41C4.792,43.726,5.135,34.835,5.135,30.7S4.8,17.652,6.278,13.919a9.6,9.6,0,0,1,5.41-5.41c3.747-1.486,12.637-1.143,16.777-1.143s13.043-.33,16.777,1.143a9.6,9.6,0,0,1,5.41,5.41c1.486,3.747,1.143,12.637,1.143,16.777S52.138,43.738,50.652,47.472Z" transform="translate(0.005 -2.238)"/>
</svg>
