<?xml version="1.0" encoding="utf-8"?>
<!-- Generator: Adobe Illustrator 24.1.0, SVG Export Plug-In . SVG Version: 6.00 Build 0)  -->
<svg version="1.1"
	 id="Layer_1" xmlns:cc="http://creativecommons.org/ns#" xmlns:dc="http://purl.org/dc/elements/1.1/" xmlns:rdf="http://www.w3.org/1999/02/22-rdf-syntax-ns#" xmlns:svg="http://www.w3.org/2000/svg"
	 xmlns="http://www.w3.org/2000/svg" xmlns:xlink="http://www.w3.org/1999/xlink" x="0px" y="0px" viewBox="0 0 192.7 161.1"
	 style="enable-background:new 0 0 192.7 161.1;" xml:space="preserve">
<style type="text/css">
	.st0{fill:#FFFFFF;}
</style>
<path id="path2" class="st0" d="M101.1,93L101.1,93c10.7-1.1,20.6-5.8,28.2-13.4l0,0c8.4-8.4,13.7-20.1,13.7-32.9
	s-5.2-24.5-13.6-32.9v-0.1C121.7,6,111.9,1.4,101.2,0.3l0,0c-0.7-0.1-1.4-0.1-2.1-0.2c-0.1,0-0.2,0-0.3,0C98,0.1,97.2,0,96.4,0l0,0
	l0,0C82.1,0,69.2,6.5,60.7,16.7c-0.1,0.1-0.2,0.2-0.3,0.3l-0.1,0.1c-1.4,1.7-2.7,3.5-3.8,5.4c0,0-0.1,0.1-0.1,0.2
	C52.9,28.4,50.7,35,50,42c0,0.3,0,0.6-0.1,0.9c-0.1,1.3-0.2,2.5-0.2,3.8l0,0l0,0c0,25.7,20.9,46.6,46.6,46.6l0,0l0,0
	c0.8,0,1.6,0,2.4-0.1c0.1,0,0.2,0,0.3,0C99.7,93.2,100.4,93.1,101.1,93z M101.9,83.9c-0.5,0.1-1,0.1-1.5,0.2c-0.2,0-0.3,0-0.5,0
	c-0.4,0-0.9,0.1-1.3,0.1c-0.2,0-0.3,0-0.5,0c-0.6,0-1.2,0-1.8,0c-20.8,0-37.6-16.9-37.6-37.6c0-1.8,0.1-3.6,0.4-5.3
	c0-0.1,0-0.3,0.1-0.4c0-0.3,0.1-0.5,0.1-0.8c0.1-0.4,0.1-0.7,0.2-1.1c0.5-2.7,1.4-5.2,2.5-7.7C67.9,18.1,81.1,8.9,96.4,8.9
	c0.6,0,1.2,0,1.8,0c0.2,0,0.3,0,0.5,0c0.5,0,0.9,0.1,1.4,0.1c0.2,0,0.3,0,0.5,0c0.5,0.1,1,0.1,1.5,0.2c0.1,0,0.2,0,0.2,0
	c6.5,1,12.5,3.7,17.4,7.6L90.1,46.4L119.7,76C114.7,79.9,108.4,82.9,101.9,83.9C101.7,84.1,102,83.9,101.9,83.9z M125.9,69.9
	l-23.2-23.2l23.2-23.2c5,6.4,8.1,14.5,8.1,23.2S131,63.5,125.9,69.9z"/>
<g id="g22" transform="translate(-212.5,-369.601)">
	<path id="path4" class="st0" d="M230.9,476.5h5.1c0.7,0,1.4,0.1,2,0.2c0.7,0.1,1.2,0.4,1.8,0.7c0.5,0.3,0.9,0.7,1.3,1.3
		c0.4,0.6,0.5,1.2,0.5,1.9c0,1-0.3,1.8-0.8,2.4s-1.2,1.1-2.1,1.3l0,0c0.5,0,1,0.2,1.5,0.4c0.5,0.2,0.9,0.5,1.2,0.9
		c0.3,0.4,0.6,0.8,0.8,1.3s0.3,1,0.3,1.5c0,0.9-0.2,1.7-0.6,2.3c-0.4,0.6-0.9,1.1-1.5,1.4c-0.6,0.4-1.3,0.6-2.1,0.7
		c-0.8,0.1-1.5,0.2-2.3,0.2h-5L230.9,476.5L230.9,476.5L230.9,476.5z M232.8,483.5h2.7c0.5,0,0.9,0,1.4-0.1c0.4-0.1,0.8-0.2,1.2-0.4
		c0.4-0.2,0.6-0.5,0.9-0.8c0.3-0.3,0.3-0.8,0.3-1.4c0-0.5-0.1-0.9-0.3-1.3c-0.2-0.3-0.5-0.6-0.8-0.8c-0.3-0.2-0.7-0.3-1.2-0.4
		c-0.4-0.1-0.9-0.1-1.3-0.1h-2.9L232.8,483.5z M232.8,491.2h3.3c0.5,0,1-0.1,1.4-0.2c0.5-0.1,0.9-0.3,1.3-0.5
		c0.4-0.2,0.7-0.5,0.9-0.9c0.2-0.4,0.4-0.8,0.4-1.4c0-0.6-0.1-1.1-0.3-1.5c-0.2-0.4-0.5-0.7-0.9-0.9c-0.4-0.2-0.8-0.4-1.3-0.5
		c-0.5-0.1-1-0.1-1.5-0.1h-3.4v6L232.8,491.2L232.8,491.2z"/>
	<path id="path6" class="st0" d="M249,476.5h4.2c0.8,0,1.6,0,2.4,0.1c0.8,0.1,1.5,0.3,2.1,0.6c0.6,0.3,1.1,0.8,1.5,1.4
		c0.4,0.6,0.6,1.4,0.6,2.5c0,1.2-0.4,2.2-1.1,3c-0.7,0.8-1.8,1.2-3.1,1.4l4.7,7.7H258l-4.5-7.5H251v7.5h-2V476.5z M251,483.8h1.8
		c0.5,0,1.1,0,1.7,0c0.6,0,1.1-0.1,1.6-0.3c0.5-0.2,0.9-0.4,1.2-0.8c0.3-0.4,0.5-0.9,0.5-1.6c0-0.6-0.1-1.1-0.4-1.4
		c-0.2-0.4-0.5-0.6-0.9-0.8c-0.4-0.2-0.8-0.3-1.3-0.4s-1-0.1-1.4-0.1H251V483.8z"/>
	<path id="path8" class="st0" d="M274.2,493.5c-1.3,0-2.4-0.2-3.5-0.7c-1.1-0.4-2-1-2.7-1.8c-0.8-0.8-1.4-1.7-1.8-2.8
		c-0.4-1.1-0.6-2.2-0.6-3.5s0.2-2.4,0.6-3.5c0.4-1.1,1-2,1.8-2.8c0.8-0.8,1.7-1.4,2.7-1.8c1.1-0.4,2.2-0.7,3.5-0.7s2.4,0.2,3.5,0.7
		c1.1,0.4,2,1,2.7,1.8c0.8,0.8,1.4,1.7,1.8,2.8c0.4,1.1,0.6,2.2,0.6,3.5s-0.2,2.4-0.6,3.5c-0.4,1.1-1,2-1.8,2.8s-1.7,1.4-2.7,1.8
		C276.6,493.3,275.4,493.5,274.2,493.5z M274.2,491.7c1,0,1.9-0.2,2.7-0.5c0.8-0.4,1.5-0.9,2.1-1.5c0.6-0.6,1-1.4,1.4-2.2
		c0.3-0.8,0.5-1.7,0.5-2.7s-0.2-1.9-0.5-2.7c-0.3-0.8-0.8-1.6-1.4-2.2c-0.6-0.6-1.3-1.1-2.1-1.5c-0.8-0.4-1.7-0.5-2.7-0.5
		s-1.9,0.2-2.7,0.5c-0.8,0.4-1.5,0.9-2.1,1.5c-0.6,0.6-1,1.4-1.3,2.2c-0.3,0.8-0.5,1.7-0.5,2.7s0.2,1.9,0.5,2.7
		c0.3,0.8,0.8,1.6,1.3,2.2c0.6,0.6,1.3,1.1,2.1,1.5C272.3,491.5,273.2,491.7,274.2,491.7z"/>
	<path id="path10" class="st0" d="M302,487c0,0.9-0.2,1.5-0.4,2.3c-0.2,0.8-0.6,1.5-1.1,2.1c-0.5,0.6-1.1,1.1-1.9,1.5
		c-0.8,0.4-1.8,0.6-2.9,0.6s-2.1-0.2-2.9-0.6s-1.4-0.9-1.9-1.5c-0.5-0.6-0.9-1.3-1.1-2.1c-0.2-0.8-0.3-1.7-0.3-2.6v-10.3h2v10
		c0,0.7,0.1,1.3,0.2,1.9c0.1,0.6,0.4,1.2,0.7,1.7c0.3,0.5,0.8,0.9,1.3,1.2c0.5,0.3,1.2,0.4,2.1,0.4c0.8,0,1.5-0.1,2.1-0.4
		c0.5-0.3,1-0.7,1.3-1.2s0.6-1,0.7-1.7c0.1-0.6,0.2-1.3,0.2-1.9v-10h2v10.3L302,487z"/>
	<path id="path12" class="st0" d="M307.5,476.5h2.2l3.8,13.8l0,0l4.1-13.8h2.2l4.1,13.8l0,0l3.8-13.8h2.1l-4.9,16.6h-2.1l-4.1-14.1
		l0,0l-4.1,14.1h-2.2L307.5,476.5z"/>
	<path id="path14" class="st0" d="M335.4,476.5h10.4v1.8h-8.5v5.2h7.9v1.8h-7.9v5.9h8.9v1.8h-10.9v-16.5L335.4,476.5z"/>
	<path id="path16" class="st0" d="M352.5,476.5h4.2c0.8,0,1.6,0,2.4,0.1c0.8,0.1,1.5,0.3,2.1,0.6c0.6,0.3,1.1,0.8,1.5,1.4
		c0.4,0.6,0.6,1.4,0.6,2.5c0,1.2-0.4,2.2-1.1,3c-0.7,0.8-1.8,1.2-3.1,1.4l4.7,7.7h-2.4l-4.5-7.5h-2.5v7.5h-2v-16.7H352.5z
		 M354.5,483.8h1.8c0.5,0,1.1,0,1.7,0s1.1-0.1,1.6-0.3c0.5-0.2,0.9-0.4,1.2-0.8c0.3-0.4,0.5-0.9,0.5-1.6c0-0.6-0.1-1.1-0.4-1.4
		c-0.2-0.4-0.5-0.6-0.9-0.8c-0.4-0.2-0.8-0.3-1.3-0.4s-1-0.1-1.4-0.1h-2.8L354.5,483.8L354.5,483.8z"/>
	<path id="path18" class="st0" d="M370.2,476.5h2v16.6h-2V476.5z"/>
	<path id="path20" class="st0" d="M386.9,488.8c0,0.6-0.1,1.1-0.2,1.7c-0.2,0.6-0.4,1.1-0.8,1.5c-0.4,0.5-0.9,0.8-1.5,1.1
		c-0.6,0.3-1.3,0.4-2.2,0.4c-1.2,0-2.2-0.3-2.9-0.9c-0.8-0.6-1.3-1.5-1.5-2.7l2-0.4c0.1,0.7,0.4,1.2,0.8,1.6s1,0.6,1.7,0.6
		c0.6,0,1-0.1,1.4-0.3c0.4-0.2,0.6-0.5,0.8-0.8c0.2-0.3,0.3-0.7,0.4-1.1c0.1-0.4,0.1-0.9,0.1-1.3v-11.6h2L386.9,488.8L386.9,488.8z"
		/>
</g>
<path id="path24" class="st0" d="M22.4,132.7L10,146.1l13.5,14.1v0.3H17L5.3,148.1v12.4H0v-28h5.3v11.9l10.6-11.8h6.6v0.1H22.4z"/>
<path id="path26" class="st0" d="M56.3,160.5h-4.5l-3.5-8.8l-3-8.8l-2.9,8.9l-3.4,8.7h-4.5l-10.3-28h5.9l6.6,20.2l6.8-20.2h3.4
	l7,20.2l6.4-20.2h5.9L56.3,160.5z"/>
<path id="path28" class="st0" d="M86.5,155.2H71.9l-2.4,5.3h-5.7l12.6-28h5.8l12.6,28H89L86.5,155.2z M79.2,138.4L74,150.3h10.4
	L79.2,138.4z"/>
<path id="path30" class="st0" d="M121.4,160.5h-6.3l-8.2-9.4h-5.1v9.4h-5.3v-28c4.4,0,8.9,0,13.3,0c6.6,0,10.1,4.4,10.1,9.3
	c0,3.8-1.8,7.7-7.1,8.8l8.5,9.6L121.4,160.5L121.4,160.5z M101.9,137.4v9h8c3.4,0,4.8-2.2,4.8-4.5c0-2.2-1.5-4.5-4.8-4.5H101.9z"/>
<path id="path32" class="st0" d="M130.4,137.3h-8.9v-4.8c8.1,0,14.9,0,23,0v4.8h-8.9v23.2h-5.3L130.4,137.3L130.4,137.3z"/>
<path id="path34" class="st0" d="M166.8,148.6c0,7.2-4.6,12.5-12.3,12.5c-7.2,0-12.3-4.3-12.3-12.2h5.2c0,4.8,2.3,7.2,7.1,7.2
	s7-3.3,7-7.6v-11.1h-8.4v-4.9c4.6,0,9.1,0,13.7,0V148.6z"/>
<path id="path36" class="st0" d="M192.7,160.5h-21c0-9.3,0-18.7,0-28h21v5.1H177v6.4h15.2v4.9H177v6.3h15.7V160.5z"/>
<rect id="rect38" x="0.2" y="114.3" class="st0" width="11.7" height="1.7"/>
<rect id="rect40" x="180.9" y="114.3" class="st0" width="11.7" height="1.7"/>
</svg>
