<svg xmlns="http://www.w3.org/2000/svg" width="57.551" height="46.742" viewBox="0 0 57.551 46.742">
  <defs>
    <style>
      .cls-1 {
        fill: #fff;
      }
    </style>
  </defs>
  <path id="Icon_awesome-twitter" data-name="Icon awesome-twitter" class="cls-1" d="M51.635,15.03c.037.511.037,1.023.037,1.534,0,15.593-11.868,33.559-33.559,33.559A33.332,33.332,0,0,1,0,44.828a24.4,24.4,0,0,0,2.848.146,23.622,23.622,0,0,0,14.643-5.039,11.816,11.816,0,0,1-11.028-8.18,14.875,14.875,0,0,0,2.228.183,12.475,12.475,0,0,0,3.1-.4A11.8,11.8,0,0,1,2.337,19.96v-.146a11.879,11.879,0,0,0,5.331,1.5A11.813,11.813,0,0,1,4.017,5.535a33.527,33.527,0,0,0,24.32,12.343,13.315,13.315,0,0,1-.292-2.7,11.806,11.806,0,0,1,20.413-8.07,23.222,23.222,0,0,0,7.486-2.848,11.763,11.763,0,0,1-5.185,6.5,23.646,23.646,0,0,0,6.792-1.826,25.355,25.355,0,0,1-5.916,6.1Z" transform="translate(0 -3.381)"/>
</svg>
